<?xml version="1.0" encoding="utf-8"?>
<!-- Generator: Adobe Illustrator 15.1.0, SVG Export Plug-In . SVG Version: 6.00 Build 0)  -->
<!DOCTYPE svg PUBLIC "-//W3C//DTD SVG 1.1//EN" "http://www.w3.org/Graphics/SVG/1.1/DTD/svg11.dtd">
<svg version="1.1" id="Layer_1" xmlns="http://www.w3.org/2000/svg" xmlns:xlink="http://www.w3.org/1999/xlink" x="0px" y="0px"
	 width="600px" height="250px" viewBox="0 0 600 250" enable-background="new 0 0 600 250" xml:space="preserve">
<path fill="#260C1A" d="M252.854,123.585c0-5.714,1.212-21.035,21.728-21.035c18.178,0,21.208,11.945,21.641,18.697
	c0.086,1.559-0.692,2.511-2.25,2.857l-9.782,2.164c-1.731,0.346-2.684-0.434-2.856-2.251c-0.346-4.155-1.818-6.579-6.752-6.579
	c-6.406,0-6.838,4.068-6.838,10.734v12.465c0,6.665,0.433,10.733,6.838,10.733s6.838-4.068,6.838-8.31H276.4
	c-1.645,0-2.597-0.952-2.597-2.597v-6.926c0-1.73,0.952-2.597,2.597-2.597h17.313c1.731,0,2.597,0.866,2.597,2.597v11.687
	c0,5.713-1.212,21.035-21.727,21.035c-20.516,0-21.728-15.322-21.728-21.035V123.585z"/>
<path fill="#260C1A" d="M349.909,161.759c0,1.904-0.865,2.943-2.597,2.943h-9.695c-1.645,0-2.597-0.865-2.597-2.597v-7.531
	c0-1.731-0.866-2.597-2.597-2.597h-7.445c-1.645,0-2.597,0.865-2.597,2.597v7.531c0,1.731-0.866,2.597-2.597,2.597h-9.695
	c-1.645,0-2.597-1.039-2.597-2.943v-36.702c0-10.907,1.731-22.507,21.208-22.507c19.477,0,21.208,11.6,21.208,22.507V161.759z
	 M335.02,125.057c0-4.155-0.606-6.233-6.319-6.233c-5.713,0-6.319,2.078-6.319,6.233v9.435c0,1.646,0.952,2.598,2.597,2.598h7.445
	c1.731-0.087,2.597-0.952,2.597-2.684V125.057z"/>
<path fill="#260C1A" d="M376.454,104.108c1.472,0,2.424,0.605,3.029,1.99l11.773,28.826c0.346,0.778,1.038,0.605,1.038-0.26v-27.96
	c0-1.731,0.952-2.597,2.597-2.597h9.695c1.731,0,2.598,0.865,2.598,2.597v55.4c0,1.645-0.866,2.597-2.598,2.597h-12.725
	c-1.472,0-2.424-0.605-3.029-1.991l-11.773-28.825c-0.346-0.779-1.039-0.606-1.039,0.26v27.96c0,1.645-0.865,2.597-2.596,2.597
	h-9.695c-1.645,0-2.598-0.952-2.598-2.597v-55.4c0-1.731,0.953-2.597,2.598-2.597H376.454z"/>
<path fill="#260C1A" d="M440.739,104.108c16.274,0,21.642,6.578,21.642,20.774v18.958c0,14.196-5.367,20.861-21.642,20.861h-19.303
	c-1.645,0-2.598-0.952-2.598-2.597v-55.314c0-1.73,0.866-2.597,2.598-2.683H440.739z M440.999,149.813
	c4.156,0,6.232-0.692,6.232-5.887c0-0.086,0-18.957,0-19.044c0-5.366-2.076-5.886-6.232-5.886h-4.674
	c-1.645,0-2.598,0.865-2.598,2.597v25.623c0,1.645,0.953,2.597,2.598,2.597H440.999z"/>
<path fill="#260C1A" d="M512.124,104.108c1.73,0,2.597,0.865,2.597,2.597v9.695c0,1.645-0.866,2.597-2.597,2.597h-20.948
	c-1.646,0-2.597,0.865-2.597,2.597v2.77c0,1.646,0.951,2.598,2.597,2.598h13.417c1.731,0,2.598,0.865,2.598,2.597v9.695
	c0,1.645-0.866,2.597-2.598,2.597h-13.417c-1.646,0-2.597,0.865-2.597,2.597v2.771c0,1.645,0.951,2.597,2.597,2.597h20.948
	c1.73,0,2.597,0.865,2.597,2.597v9.695c0,1.731-0.866,2.597-2.597,2.597h-36.356c-1.646,0-2.597-0.952-2.597-2.597v-55.4
	c0-1.731,0.951-2.597,2.597-2.597H512.124z"/>
<path fill="#260C1A" d="M571.004,160.027c1.211,2.251-0.174,4.675-2.857,4.675h-9.867c-0.865,0-1.645-0.433-1.992-1.212
	l-9.002-17.399c-0.172-0.26-0.432-0.433-0.691-0.433h-3.463c-1.558,0-2.683,1.125-2.683,2.684v13.677
	c0,1.559-1.126,2.684-2.684,2.684h-9.695c-1.559,0-2.684-1.125-2.684-2.684v-55.228c0-1.558,1.125-2.683,2.684-2.683h18.957
	c15.408,0,21.641,6.578,21.641,20.774c0,8.051-1.99,13.678-6.578,16.967c-0.346,0.26-0.434,0.692-0.26,1.125L571.004,160.027z
	 M543.131,118.997c-1.558,0-2.683,1.125-2.683,2.684v6.405c0,1.559,1.125,2.684,2.683,2.684h4.414c4.156,0,6.232-0.52,6.232-5.887
	c0-5.366-2.076-5.886-6.232-5.886H543.131z"/>
<g>
	<g>
		<path fill="#F6F5F5" d="M179.973,75.546v53.75l-32.631,21.75c-4.539,3.021-6.49,8.72-4.77,13.89l17.391,52.16l0.01,0.021
			c-16.92,6.521-35.08,7.86-52.291,4.399l-25.34-76.039c-2.879-6.391-4.369-13.33-4.369-20.341c0-27.4,22.199-49.59,49.59-49.59
			H179.973z M139.652,109.136c0-3.71-3.01-6.729-6.721-6.729c-3.709,0-6.72,3.021-6.72,6.729v6.72h6.72
			C136.643,115.855,139.652,112.846,139.652,109.136z"/>
		<path fill="#EE6F57" d="M216.992,104.615l-37.02,24.681v-53.75h23.438h30.562c2.688,0,5.209,1.34,6.698,3.59
			c2.472,3.7,1.472,8.71-2.229,11.18L216.992,104.615z"/>
		<path fill="#88D7C6" d="M216.992,104.615c10.43,38.38-4.391,79.15-37.02,101.869c-6.361,4.431-13.08,7.971-20,10.631l-0.011-0.02
			l-17.392-52.16c-1.721-5.17,0.23-10.871,4.771-13.891l32.632-21.75L216.992,104.615z"/>
		<path fill="#88D7C6" d="M203.412,75.546h-23.439h-52.41c-27.391,0-49.59,22.189-49.59,49.59c0,7.011,1.49,13.95,4.369,20.341
			l25.34,76.039c-22.95-4.609-44.229-17.74-58.66-38.47c-29.69-42.641-19.19-101.271,23.441-130.95
			C115.102,22.405,173.723,32.896,203.412,75.546z"/>
		<path fill="#260C1A" d="M132.932,102.405c3.711,0,6.721,3.021,6.721,6.729s-3.01,6.72-6.721,6.72h-6.719v-6.72
			C126.213,105.426,129.223,102.405,132.932,102.405z"/>
	</g>
	<path fill="#260C1A" d="M243.896,77.292c-2.14-3.229-6.041-5.292-9.924-5.292h-28.762c-14.883-21-36.756-34.18-61.803-38.664
		c-25.652-4.592-51.558,1.148-72.947,16.042c-21.387,14.889-35.692,37.25-40.286,62.904c-4.593,25.653,1.079,51.579,15.973,72.969
		c14.445,20.751,36.055,34.931,60.844,39.91c6.406,1.288,12.875,1.932,19.324,1.932c11.896,0,23.721-2.178,34.913-6.489
		c7.276-2.799,14.258-6.506,20.744-11.023c33.059-23.02,48.521-64.441,39.014-103.422L241,93.559
		C246,90.02,247.43,82.583,243.896,77.292z M236.499,87.626L236.499,87.626l-21.431,14.287c-0.021,0.014,0.225,0.026,0.205,0.04
		L184,122.978V79h49.973c1.529,0,2.943,0.891,3.789,2.167C239.157,83.259,238.591,86.23,236.499,87.626z M51.895,181.268
		c-13.824-19.854-19.09-43.902-14.826-67.719C41.33,89.737,54.611,69.011,74.463,55.19c19.855-13.826,43.903-19.226,67.714-14.963
		C163.709,44.082,182.7,55,196.365,72h-35.852l0.318-0.206c-3.85-3.604-8.865-5.76-14.127-6.194
		c-6.686-0.547-13.305,1.691-18.158,6.325l0.17,0.075h-1.154c-29.273,0-53.09,23.95-53.09,53.225c0,7.375,1.588,14.888,4.586,21.623
		l2.797,8.424l-6.467,7.098c-0.039,0.042-0.076,0.093-0.111,0.137c-0.309,0.372-2.987,3.766-2.241,8.102
		c0.35,2.039,1.612,4.978,5.641,7.384l3.591-6.009c-0.951-0.568-2.129-1.469-2.328-2.529c-0.203-1.092,0.58-2.258,0.713-2.447
		l3.738-4.093l17.979,53.954C81.887,211.295,64.121,198.833,51.895,181.268z M115.646,109.041c0-9.098,7.401-16.5,16.5-16.5
		s16.5,7.402,16.5,16.5c0,9.099-7.4,16.5-16.5,16.5C123.048,125.541,115.646,118.139,115.646,109.041z M132.146,85.541
		c-12.958,0-23.5,10.542-23.5,23.5c0,4.196,1.11,8.136,3.047,11.549l-24.502,28.588l-1.529-4.586
		c-0.02-0.057-0.051-0.105-0.072-0.16c-0.021-0.057-0.031-0.115-0.057-0.171c-2.656-5.895-4.061-12.565-4.061-19.036
		C81.473,99.811,102.148,79,127.563,79h13.763l-3.381,7.133C136.09,85.66,134.148,85.541,132.146,85.541z M110.348,218.667
		l-20.576-61.745l26.338-30.729c4.203,3.933,9.843,6.347,16.039,6.347c12.957,0,23.5-10.542,23.5-23.5
		c0-8.471-4.508-16.042-11.248-20.177L149.098,79H177v48.645c0,0-31.16,20.713-31.161,20.713
		c-5.835,3.885-7.839,11.246-5.839,17.903c0,0.003,0-0.262,0-0.262l15.629,49.082C141.123,220.063,125.54,221.377,110.348,218.667z
		 M177.973,203.835c-5.009,3.488-10.281,6.447-15.813,8.841L146,164.055c0-0.001,0-0.001,0-0.002c-1-3.673,0.118-8.322,3.334-10.461
		c0.001,0,32.596-21.318,32.598-21.32l32.826-21.812C222.346,145.896,207.955,182.959,177.973,203.835z"/>
</g>
</svg>
